<svg width="1920" height="434" viewBox="0 0 1920 434" fill="none" xmlns="http://www.w3.org/2000/svg">
<g filter="url(#filter0_d)">
<path d="M-852.5 394.996C-860.167 400.663 -869.667 404.996 -881 407.996C-892 410.663 -903.667 411.996 -916 411.996C-948 411.996 -972.833 403.829 -990.5 387.496C-1007.83 371.163 -1016.5 347.163 -1016.5 315.496V204.996H-1058V144.996H-1016.5V79.4961H-938.5V144.996H-871.5V204.996H-938.5V314.496C-938.5 325.829 -935.667 334.663 -930 340.996C-924 346.996 -915.667 349.996 -905 349.996C-892.667 349.996 -882.167 346.663 -873.5 339.996L-852.5 394.996ZM-665.215 134.996C-631.882 134.996 -605.048 144.996 -584.715 164.996C-564.048 184.996 -553.715 214.663 -553.715 253.996V407.996H-631.715V265.996C-631.715 244.663 -636.381 228.829 -645.715 218.496C-655.048 207.829 -668.548 202.496 -686.215 202.496C-705.882 202.496 -721.548 208.663 -733.215 220.996C-744.882 232.996 -750.715 250.996 -750.715 274.996V407.996H-828.715V36.9961H-750.715V166.996C-740.382 156.663 -727.882 148.829 -713.215 143.496C-698.548 137.829 -682.548 134.996 -665.215 134.996ZM-236.582 274.496C-236.582 275.496 -237.082 282.496 -238.082 295.496H-441.582C-437.915 312.163 -429.249 325.329 -415.582 334.996C-401.915 344.663 -384.915 349.496 -364.582 349.496C-350.582 349.496 -338.249 347.496 -327.582 343.496C-316.582 339.163 -306.415 332.496 -297.082 323.496L-255.582 368.496C-280.915 397.496 -317.915 411.996 -366.582 411.996C-396.915 411.996 -423.749 406.163 -447.082 394.496C-470.415 382.496 -488.415 365.996 -501.082 344.996C-513.749 323.996 -520.082 300.163 -520.082 273.496C-520.082 247.163 -513.915 223.496 -501.582 202.496C-488.915 181.163 -471.749 164.663 -450.082 152.996C-428.082 140.996 -403.582 134.996 -376.582 134.996C-350.249 134.996 -326.415 140.663 -305.082 151.996C-283.749 163.329 -267.082 179.663 -255.082 200.996C-242.749 221.996 -236.582 246.496 -236.582 274.496ZM-376.082 193.996C-393.749 193.996 -408.582 198.996 -420.582 208.996C-432.582 218.996 -439.915 232.663 -442.582 249.996H-310.082C-312.749 232.996 -320.082 219.496 -332.082 209.496C-344.082 199.163 -358.749 193.996 -376.082 193.996ZM46.9492 411.996C18.2826 411.996 -7.55078 406.163 -30.5508 394.496C-53.2174 382.496 -71.0508 365.996 -84.0508 344.996C-96.7174 323.996 -103.051 300.163 -103.051 273.496C-103.051 246.829 -96.7174 222.996 -84.0508 201.996C-71.0508 180.996 -53.2174 164.663 -30.5508 152.996C-7.55078 140.996 18.2826 134.996 46.9492 134.996C75.2826 134.996 99.9492 140.996 120.949 152.996C142.283 164.663 157.783 181.496 167.449 203.496L106.949 235.996C92.9492 211.329 72.7826 198.996 46.4492 198.996C26.1159 198.996 9.28256 205.663 -4.05078 218.996C-17.3841 232.329 -24.0508 250.496 -24.0508 273.496C-24.0508 296.496 -17.3841 314.663 -4.05078 327.996C9.28256 341.329 26.1159 347.996 46.4492 347.996C73.1159 347.996 93.2826 335.663 106.949 310.996L167.449 343.996C157.783 365.329 142.283 381.996 120.949 393.996C99.9492 405.996 75.2826 411.996 46.9492 411.996ZM266.859 174.496C276.193 161.496 288.693 151.663 304.359 144.996C320.359 138.329 338.693 134.996 359.359 134.996V206.996C350.693 206.329 344.859 205.996 341.859 205.996C319.526 205.996 302.026 212.329 289.359 224.996C276.693 237.329 270.359 255.996 270.359 280.996V407.996H192.359V138.996H266.859V174.496ZM646.797 274.496C646.797 275.496 646.297 282.496 645.297 295.496H441.797C445.464 312.163 454.13 325.329 467.797 334.996C481.464 344.663 498.464 349.496 518.797 349.496C532.797 349.496 545.13 347.496 555.797 343.496C566.797 339.163 576.964 332.496 586.297 323.496L627.797 368.496C602.464 397.496 565.464 411.996 516.797 411.996C486.464 411.996 459.63 406.163 436.297 394.496C412.964 382.496 394.964 365.996 382.297 344.996C369.63 323.996 363.297 300.163 363.297 273.496C363.297 247.163 369.464 223.496 381.797 202.496C394.464 181.163 411.63 164.663 433.297 152.996C455.297 140.996 479.797 134.996 506.797 134.996C533.13 134.996 556.964 140.663 578.297 151.996C599.63 163.329 616.297 179.663 628.297 200.996C640.63 221.996 646.797 246.496 646.797 274.496ZM507.297 193.996C489.63 193.996 474.797 198.996 462.797 208.996C450.797 218.996 443.464 232.663 440.797 249.996H573.297C570.63 232.996 563.297 219.496 551.297 209.496C539.297 199.163 524.63 193.996 507.297 193.996ZM779.902 134.996C821.569 134.996 853.569 144.996 875.902 164.996C898.236 184.663 909.402 214.496 909.402 254.496V407.996H836.402V374.496C821.736 399.496 794.402 411.996 754.402 411.996C733.736 411.996 715.736 408.496 700.402 401.496C685.402 394.496 673.902 384.829 665.902 372.496C657.902 360.163 653.902 346.163 653.902 330.496C653.902 305.496 663.236 285.829 681.902 271.496C700.902 257.163 730.069 249.996 769.402 249.996H831.402C831.402 232.996 826.236 219.996 815.902 210.996C805.569 201.663 790.069 196.996 769.402 196.996C755.069 196.996 740.902 199.329 726.902 203.996C713.236 208.329 701.569 214.329 691.902 221.996L663.902 167.496C678.569 157.163 696.069 149.163 716.402 143.496C737.069 137.829 758.236 134.996 779.902 134.996ZM773.902 359.496C787.236 359.496 799.069 356.496 809.402 350.496C819.736 344.163 827.069 334.996 831.402 322.996V295.496H777.902C745.902 295.496 729.902 305.996 729.902 326.996C729.902 336.996 733.736 344.996 741.402 350.996C749.402 356.663 760.236 359.496 773.902 359.496ZM1133.5 394.996C1125.83 400.663 1116.33 404.996 1105 407.996C1094 410.663 1082.33 411.996 1070 411.996C1038 411.996 1013.16 403.829 995.496 387.496C978.163 371.163 969.496 347.163 969.496 315.496V204.996H927.996V144.996H969.496V79.4961H1047.5V144.996H1114.5V204.996H1047.5V314.496C1047.5 325.829 1050.33 334.663 1056 340.996C1062 346.996 1070.33 349.996 1081 349.996C1093.33 349.996 1103.83 346.663 1112.5 339.996L1133.5 394.996ZM1157.28 138.996H1235.28V407.996H1157.28V138.996ZM1196.28 101.496C1181.95 101.496 1170.28 97.3294 1161.28 88.9961C1152.28 80.6627 1147.78 70.3294 1147.78 57.9961C1147.78 45.6627 1152.28 35.3294 1161.28 26.9961C1170.28 18.6627 1181.95 14.4961 1196.28 14.4961C1210.61 14.4961 1222.28 18.4961 1231.28 26.4961C1240.28 34.4961 1244.78 44.4961 1244.78 56.4961C1244.78 69.4961 1240.28 80.3294 1231.28 88.9961C1222.28 97.3294 1210.61 101.496 1196.28 101.496ZM1554.67 138.996L1441.17 407.996H1360.67L1247.67 138.996H1328.17L1402.67 321.996L1479.67 138.996H1554.67ZM1822.68 274.496C1822.68 275.496 1822.18 282.496 1821.18 295.496H1617.68C1621.34 312.163 1630.01 325.329 1643.68 334.996C1657.34 344.663 1674.34 349.496 1694.68 349.496C1708.68 349.496 1721.01 347.496 1731.68 343.496C1742.68 339.163 1752.84 332.496 1762.18 323.496L1803.68 368.496C1778.34 397.496 1741.34 411.996 1692.68 411.996C1662.34 411.996 1635.51 406.163 1612.18 394.496C1588.84 382.496 1570.84 365.996 1558.18 344.996C1545.51 323.996 1539.18 300.163 1539.18 273.496C1539.18 247.163 1545.34 223.496 1557.68 202.496C1570.34 181.163 1587.51 164.663 1609.18 152.996C1631.18 140.996 1655.68 134.996 1682.68 134.996C1709.01 134.996 1732.84 140.663 1754.18 151.996C1775.51 163.329 1792.18 179.663 1804.18 200.996C1816.51 221.996 1822.68 246.496 1822.68 274.496ZM1683.18 193.996C1665.51 193.996 1650.68 198.996 1638.68 208.996C1626.68 218.996 1619.34 232.663 1616.68 249.996H1749.18C1746.51 232.996 1739.18 219.496 1727.18 209.496C1715.18 199.163 1700.51 193.996 1683.18 193.996ZM2281.72 138.996L2184.22 407.996H2109.22L2048.72 240.996L1986.22 407.996H1911.22L1814.22 138.996H1887.72L1951.22 320.996L2017.22 138.996H2083.22L2147.22 320.996L2212.72 138.996H2281.72ZM2418.66 411.996C2390.33 411.996 2364.83 406.163 2342.16 394.496C2319.83 382.496 2302.33 365.996 2289.66 344.996C2276.99 323.996 2270.66 300.163 2270.66 273.496C2270.66 246.829 2276.99 222.996 2289.66 201.996C2302.33 180.996 2319.83 164.663 2342.16 152.996C2364.83 140.996 2390.33 134.996 2418.66 134.996C2446.99 134.996 2472.33 140.996 2494.66 152.996C2516.99 164.663 2534.49 180.996 2547.16 201.996C2559.83 222.996 2566.16 246.829 2566.16 273.496C2566.16 300.163 2559.83 323.996 2547.16 344.996C2534.49 365.996 2516.99 382.496 2494.66 394.496C2472.33 406.163 2446.99 411.996 2418.66 411.996ZM2418.66 347.996C2438.66 347.996 2454.99 341.329 2467.66 327.996C2480.66 314.329 2487.16 296.163 2487.16 273.496C2487.16 250.829 2480.66 232.829 2467.66 219.496C2454.99 205.829 2438.66 198.996 2418.66 198.996C2398.66 198.996 2382.16 205.829 2369.16 219.496C2356.16 232.829 2349.66 250.829 2349.66 273.496C2349.66 296.163 2356.16 314.329 2369.16 327.996C2382.16 341.329 2398.66 347.996 2418.66 347.996ZM2672.8 174.496C2682.13 161.496 2694.63 151.663 2710.3 144.996C2726.3 138.329 2744.63 134.996 2765.3 134.996V206.996C2756.63 206.329 2750.8 205.996 2747.8 205.996C2725.46 205.996 2707.96 212.329 2695.3 224.996C2682.63 237.329 2676.3 255.996 2676.3 280.996V407.996H2598.3V138.996H2672.8V174.496ZM2907.18 302.496L2869.68 339.496V407.996H2791.68V36.9961H2869.68V246.996L2983.68 138.996H3076.68L2964.68 252.996L3086.68 407.996H2992.18L2907.18 302.496ZM3353.36 411.996C3324.69 411.996 3298.86 406.163 3275.86 394.496C3253.19 382.496 3235.36 365.996 3222.36 344.996C3209.69 323.996 3203.36 300.163 3203.36 273.496C3203.36 246.829 3209.69 222.996 3222.36 201.996C3235.36 180.996 3253.19 164.663 3275.86 152.996C3298.86 140.996 3324.69 134.996 3353.36 134.996C3381.69 134.996 3406.36 140.996 3427.36 152.996C3448.69 164.663 3464.19 181.496 3473.86 203.496L3413.36 235.996C3399.36 211.329 3379.19 198.996 3352.86 198.996C3332.52 198.996 3315.69 205.663 3302.36 218.996C3289.02 232.329 3282.36 250.496 3282.36 273.496C3282.36 296.496 3289.02 314.663 3302.36 327.996C3315.69 341.329 3332.52 347.996 3352.86 347.996C3379.52 347.996 3399.69 335.663 3413.36 310.996L3473.86 343.996C3464.19 365.329 3448.69 381.996 3427.36 393.996C3406.36 405.996 3381.69 411.996 3353.36 411.996ZM3623.35 411.996C3595.01 411.996 3569.51 406.163 3546.85 394.496C3524.51 382.496 3507.01 365.996 3494.35 344.996C3481.68 323.996 3475.35 300.163 3475.35 273.496C3475.35 246.829 3481.68 222.996 3494.35 201.996C3507.01 180.996 3524.51 164.663 3546.85 152.996C3569.51 140.996 3595.01 134.996 3623.35 134.996C3651.68 134.996 3677.01 140.996 3699.35 152.996C3721.68 164.663 3739.18 180.996 3751.85 201.996C3764.51 222.996 3770.85 246.829 3770.85 273.496C3770.85 300.163 3764.51 323.996 3751.85 344.996C3739.18 365.996 3721.68 382.496 3699.35 394.496C3677.01 406.163 3651.68 411.996 3623.35 411.996ZM3623.35 347.996C3643.35 347.996 3659.68 341.329 3672.35 327.996C3685.35 314.329 3691.85 296.163 3691.85 273.496C3691.85 250.829 3685.35 232.829 3672.35 219.496C3659.68 205.829 3643.35 198.996 3623.35 198.996C3603.35 198.996 3586.85 205.829 3573.85 219.496C3560.85 232.829 3554.35 250.829 3554.35 273.496C3554.35 296.163 3560.85 314.329 3573.85 327.996C3586.85 341.329 3603.35 347.996 3623.35 347.996ZM3829.07 411.996C3815.4 411.996 3803.9 407.329 3794.57 397.996C3785.23 388.663 3780.57 376.996 3780.57 362.996C3780.57 348.663 3785.23 337.163 3794.57 328.496C3803.9 319.496 3815.4 314.996 3829.07 314.996C3842.73 314.996 3854.23 319.496 3863.57 328.496C3872.9 337.163 3877.57 348.663 3877.57 362.996C3877.57 376.996 3872.9 388.663 3863.57 397.996C3854.23 407.329 3842.73 411.996 3829.07 411.996Z" fill="#121212"/>
</g>
<defs>
<filter id="filter0_d" x="-1076" y="0.496094" width="4971.57" height="433.5" filterUnits="userSpaceOnUse" color-interpolation-filters="sRGB">
<feFlood flood-opacity="0" result="BackgroundImageFix"/>
<feColorMatrix in="SourceAlpha" type="matrix" values="0 0 0 0 0 0 0 0 0 0 0 0 0 0 0 0 0 0 127 0"/>
<feOffset dy="4"/>
<feGaussianBlur stdDeviation="9"/>
<feColorMatrix type="matrix" values="0 0 0 0 0 0 0 0 0 0 0 0 0 0 0 0 0 0 0.5 0"/>
<feBlend mode="normal" in2="BackgroundImageFix" result="effect1_dropShadow"/>
<feBlend mode="normal" in="SourceGraphic" in2="effect1_dropShadow" result="shape"/>
</filter>
</defs>
</svg>
