<svg width="1835" height="186" viewBox="0 0 1835 186" fill="none" xmlns="http://www.w3.org/2000/svg">
<path d="M136.27 251.426C131.21 255.166 124.94 258.026 117.46 260.006C110.2 261.766 102.5 262.646 94.36 262.646C73.24 262.646 56.85 257.256 45.19 246.476C33.75 235.696 28.03 219.856 28.03 198.956V126.026H0.64V86.4259H28.03V43.1959H79.51V86.4259H123.73V126.026H79.51V198.296C79.51 205.776 81.38 211.606 85.12 215.786C89.08 219.746 94.58 221.726 101.62 221.726C109.76 221.726 116.69 219.526 122.41 215.126L136.27 251.426ZM259.878 79.8259C281.878 79.8259 299.588 86.4259 313.008 99.6258C326.648 112.826 333.468 132.406 333.468 158.366V260.006H281.988V166.286C281.988 152.206 278.908 141.756 272.748 134.936C266.588 127.896 257.678 124.376 246.018 124.376C233.038 124.376 222.698 128.446 214.998 136.586C207.298 144.506 203.448 156.386 203.448 172.226V260.006H151.968V15.1458H203.448V100.946C210.268 94.1259 218.518 88.9559 228.198 85.4358C237.878 81.6959 248.438 79.8259 259.878 79.8259ZM542.776 171.896C542.776 172.556 542.446 177.176 541.786 185.756H407.476C409.896 196.756 415.616 205.446 424.636 211.826C433.656 218.206 444.876 221.396 458.296 221.396C467.536 221.396 475.676 220.076 482.716 217.436C489.976 214.576 496.686 210.176 502.846 204.236L530.236 233.936C513.516 253.076 489.096 262.646 456.976 262.646C436.956 262.646 419.246 258.796 403.846 251.096C388.446 243.176 376.566 232.286 368.206 218.426C359.846 204.566 355.666 188.836 355.666 171.236C355.666 153.856 359.736 138.236 367.876 124.376C376.236 110.296 387.566 99.4058 401.866 91.7058C416.386 83.7859 432.556 79.8259 450.376 79.8259C467.756 79.8259 483.486 83.5659 497.566 91.0459C511.646 98.5259 522.646 109.306 530.566 123.386C538.706 137.246 542.776 153.416 542.776 171.896ZM450.706 118.766C439.046 118.766 429.256 122.066 421.336 128.666C413.416 135.266 408.576 144.286 406.816 155.726H494.266C492.506 144.506 487.666 135.596 479.746 128.996C471.826 122.176 462.146 118.766 450.706 118.766ZM729.907 262.646C710.986 262.646 693.936 258.796 678.756 251.096C663.796 243.176 652.026 232.286 643.446 218.426C635.086 204.566 630.906 188.836 630.906 171.236C630.906 153.636 635.086 137.906 643.446 124.046C652.026 110.186 663.796 99.4058 678.756 91.7058C693.936 83.7859 710.986 79.8259 729.907 79.8259C748.607 79.8259 764.887 83.7859 778.747 91.7058C792.827 99.4058 803.057 110.516 809.437 125.036L769.507 146.486C760.267 130.206 746.957 122.066 729.577 122.066C716.157 122.066 705.046 126.466 696.246 135.266C687.446 144.066 683.047 156.056 683.047 171.236C683.047 186.416 687.446 198.406 696.246 207.206C705.046 216.006 716.157 220.406 729.577 220.406C747.177 220.406 760.487 212.266 769.507 195.986L809.437 217.766C803.057 231.846 792.827 242.846 778.747 250.766C764.887 258.686 748.607 262.646 729.907 262.646ZM875.047 105.896C881.207 97.3158 889.457 90.8258 899.797 86.4259C910.357 82.0259 922.457 79.8259 936.097 79.8259V127.346C930.377 126.906 926.527 126.686 924.547 126.686C909.807 126.686 898.257 130.866 889.897 139.226C881.537 147.366 877.357 159.686 877.357 176.186V260.006H825.877V82.4658H875.047V105.896ZM1125.81 171.896C1125.81 172.556 1125.48 177.176 1124.82 185.756H990.506C992.926 196.756 998.646 205.446 1007.67 211.826C1016.69 218.206 1027.91 221.396 1041.33 221.396C1050.57 221.396 1058.71 220.076 1065.75 217.436C1073.01 214.576 1079.72 210.176 1085.88 204.236L1113.27 233.936C1096.55 253.076 1072.13 262.646 1040.01 262.646C1019.99 262.646 1002.28 258.796 986.876 251.096C971.476 243.176 959.596 232.286 951.236 218.426C942.876 204.566 938.696 188.836 938.696 171.236C938.696 153.856 942.766 138.236 950.906 124.376C959.266 110.296 970.596 99.4058 984.896 91.7058C999.416 83.7859 1015.59 79.8259 1033.41 79.8259C1050.79 79.8259 1066.52 83.5659 1080.6 91.0459C1094.68 98.5259 1105.68 109.306 1113.6 123.386C1121.74 137.246 1125.81 153.416 1125.81 171.896ZM1033.74 118.766C1022.08 118.766 1012.29 122.066 1004.37 128.666C996.446 135.266 991.606 144.286 989.846 155.726H1077.3C1075.54 144.506 1070.7 135.596 1062.78 128.996C1054.86 122.176 1045.18 118.766 1033.74 118.766ZM1213.66 79.8259C1241.16 79.8259 1262.28 86.4259 1277.02 99.6258C1291.76 112.606 1299.13 132.296 1299.13 158.696V260.006H1250.95V237.896C1241.27 254.396 1223.23 262.646 1196.83 262.646C1183.19 262.646 1171.31 260.336 1161.19 255.716C1151.29 251.096 1143.7 244.716 1138.42 236.576C1133.14 228.436 1130.5 219.196 1130.5 208.856C1130.5 192.356 1136.66 179.376 1148.98 169.916C1161.52 160.456 1180.77 155.726 1206.73 155.726H1247.65C1247.65 144.506 1244.24 135.926 1237.42 129.986C1230.6 123.826 1220.37 120.746 1206.73 120.746C1197.27 120.746 1187.92 122.286 1178.68 125.366C1169.66 128.226 1161.96 132.186 1155.58 137.246L1137.1 101.276C1146.78 94.4559 1158.33 89.1758 1171.75 85.4358C1185.39 81.6959 1199.36 79.8259 1213.66 79.8259ZM1209.7 227.996C1218.5 227.996 1226.31 226.016 1233.13 222.056C1239.95 217.876 1244.79 211.826 1247.65 203.906V185.756H1212.34C1191.22 185.756 1180.66 192.686 1180.66 206.546C1180.66 213.146 1183.19 218.426 1188.25 222.386C1193.53 226.126 1200.68 227.996 1209.7 227.996ZM1447.03 251.426C1441.97 255.166 1435.7 258.026 1428.22 260.006C1420.96 261.766 1413.26 262.646 1405.12 262.646C1384 262.646 1367.61 257.256 1355.95 246.476C1344.51 235.696 1338.79 219.856 1338.79 198.956V126.026H1311.4V86.4259H1338.79V43.1959H1390.27V86.4259H1434.49V126.026H1390.27V198.296C1390.27 205.776 1392.14 211.606 1395.88 215.786C1399.84 219.746 1405.34 221.726 1412.38 221.726C1420.52 221.726 1427.45 219.526 1433.17 215.126L1447.03 251.426ZM1462.73 82.4658H1514.21V260.006H1462.73V82.4658ZM1488.47 57.7158C1479.01 57.7158 1471.31 54.9659 1465.37 49.4659C1459.43 43.9658 1456.46 37.1458 1456.46 29.0058C1456.46 20.8658 1459.43 14.0458 1465.37 8.54585C1471.31 3.04584 1479.01 0.29584 1488.47 0.29584C1497.93 0.29584 1505.63 2.93584 1511.57 8.21586C1517.51 13.4959 1520.48 20.0959 1520.48 28.0159C1520.48 36.5959 1517.51 43.7459 1511.57 49.4659C1505.63 54.9659 1497.93 57.7158 1488.47 57.7158ZM1725 82.4658L1650.09 260.006H1596.96L1522.38 82.4658H1575.51L1624.68 203.246L1675.5 82.4658H1725ZM1901.89 171.896C1901.89 172.556 1901.56 177.176 1900.9 185.756H1766.59C1769.01 196.756 1774.73 205.446 1783.75 211.826C1792.77 218.206 1803.99 221.396 1817.41 221.396C1826.65 221.396 1834.79 220.076 1841.83 217.436C1849.09 214.576 1855.8 210.176 1861.96 204.236L1889.35 233.936C1872.63 253.076 1848.21 262.646 1816.09 262.646C1796.07 262.646 1778.36 258.796 1762.96 251.096C1747.56 243.176 1735.68 232.286 1727.32 218.426C1718.96 204.566 1714.78 188.836 1714.78 171.236C1714.78 153.856 1718.85 138.236 1726.99 124.376C1735.35 110.296 1746.68 99.4058 1760.98 91.7058C1775.5 83.7859 1791.67 79.8259 1809.49 79.8259C1826.87 79.8259 1842.6 83.5659 1856.68 91.0459C1870.76 98.5259 1881.76 109.306 1889.68 123.386C1897.82 137.246 1901.89 153.416 1901.89 171.896ZM1809.82 118.766C1798.16 118.766 1788.37 122.066 1780.45 128.666C1772.53 135.266 1767.69 144.286 1765.93 155.726H1853.38C1851.62 144.506 1846.78 135.596 1838.86 128.996C1830.94 122.176 1821.26 118.766 1809.82 118.766ZM2204.86 82.4658L2140.51 260.006H2091.01L2051.08 149.786L2009.83 260.006H1960.33L1896.31 82.4658H1944.82L1986.73 202.586L2030.29 82.4658H2073.85L2116.09 202.586L2159.32 82.4658H2204.86ZM2295.24 262.646C2276.54 262.646 2259.71 258.796 2244.75 251.096C2230.01 243.176 2218.46 232.286 2210.1 218.426C2201.74 204.566 2197.56 188.836 2197.56 171.236C2197.56 153.636 2201.74 137.906 2210.1 124.046C2218.46 110.186 2230.01 99.4058 2244.75 91.7058C2259.71 83.7859 2276.54 79.8259 2295.24 79.8259C2313.94 79.8259 2330.66 83.7859 2345.4 91.7058C2360.14 99.4058 2371.69 110.186 2380.05 124.046C2388.41 137.906 2392.59 153.636 2392.59 171.236C2392.59 188.836 2388.41 204.566 2380.05 218.426C2371.69 232.286 2360.14 243.176 2345.4 251.096C2330.66 258.796 2313.94 262.646 2295.24 262.646ZM2295.24 220.406C2308.44 220.406 2319.22 216.006 2327.58 207.206C2336.16 198.186 2340.45 186.196 2340.45 171.236C2340.45 156.276 2336.16 144.396 2327.58 135.596C2319.22 126.576 2308.44 122.066 2295.24 122.066C2282.04 122.066 2271.15 126.576 2262.57 135.596C2253.99 144.396 2249.7 156.276 2249.7 171.236C2249.7 186.196 2253.99 198.186 2262.57 207.206C2271.15 216.006 2282.04 220.406 2295.24 220.406ZM2462.97 105.896C2469.13 97.3158 2477.38 90.8258 2487.72 86.4259C2498.28 82.0259 2510.38 79.8259 2524.02 79.8259V127.346C2518.3 126.906 2514.45 126.686 2512.47 126.686C2497.73 126.686 2486.18 130.866 2477.82 139.226C2469.46 147.366 2465.28 159.686 2465.28 176.186V260.006H2413.8V82.4658H2462.97V105.896ZM2617.66 190.376L2592.91 214.796V260.006H2541.43V15.1458H2592.91V153.746L2668.15 82.4658H2729.53L2655.61 157.706L2736.13 260.006H2673.76L2617.66 190.376ZM2912.13 262.646C2893.21 262.646 2876.16 258.796 2860.98 251.096C2846.02 243.176 2834.25 232.286 2825.67 218.426C2817.31 204.566 2813.13 188.836 2813.13 171.236C2813.13 153.636 2817.31 137.906 2825.67 124.046C2834.25 110.186 2846.02 99.4058 2860.98 91.7058C2876.16 83.7859 2893.21 79.8259 2912.13 79.8259C2930.83 79.8259 2947.11 83.7859 2960.97 91.7058C2975.05 99.4058 2985.28 110.516 2991.66 125.036L2951.73 146.486C2942.49 130.206 2929.18 122.066 2911.8 122.066C2898.38 122.066 2887.27 126.466 2878.47 135.266C2869.67 144.066 2865.27 156.056 2865.27 171.236C2865.27 186.416 2869.67 198.406 2878.47 207.206C2887.27 216.006 2898.38 220.406 2911.8 220.406C2929.4 220.406 2942.71 212.266 2951.73 195.986L2991.66 217.766C2985.28 231.846 2975.05 242.846 2960.97 250.766C2947.11 258.686 2930.83 262.646 2912.13 262.646ZM3090.33 262.646C3071.63 262.646 3054.8 258.796 3039.84 251.096C3025.1 243.176 3013.55 232.286 3005.19 218.426C2996.83 204.566 2992.65 188.836 2992.65 171.236C2992.65 153.636 2996.83 137.906 3005.19 124.046C3013.55 110.186 3025.1 99.4058 3039.84 91.7058C3054.8 83.7859 3071.63 79.8259 3090.33 79.8259C3109.03 79.8259 3125.75 83.7859 3140.49 91.7058C3155.23 99.4058 3166.78 110.186 3175.14 124.046C3183.5 137.906 3187.68 153.636 3187.68 171.236C3187.68 188.836 3183.5 204.566 3175.14 218.426C3166.78 232.286 3155.23 243.176 3140.49 251.096C3125.75 258.796 3109.03 262.646 3090.33 262.646ZM3090.33 220.406C3103.53 220.406 3114.31 216.006 3122.67 207.206C3131.25 198.186 3135.54 186.196 3135.54 171.236C3135.54 156.276 3131.25 144.396 3122.67 135.596C3114.31 126.576 3103.53 122.066 3090.33 122.066C3077.13 122.066 3066.24 126.576 3057.66 135.596C3049.08 144.396 3044.79 156.276 3044.79 171.236C3044.79 186.196 3049.08 198.186 3057.66 207.206C3066.24 216.006 3077.13 220.406 3090.33 220.406ZM3226.1 262.646C3217.08 262.646 3209.49 259.566 3203.33 253.406C3197.17 247.246 3194.09 239.546 3194.09 230.306C3194.09 220.846 3197.17 213.256 3203.33 207.536C3209.49 201.596 3217.08 198.626 3226.1 198.626C3235.12 198.626 3242.71 201.596 3248.87 207.536C3255.03 213.256 3258.11 220.846 3258.11 230.306C3258.11 239.546 3255.03 247.246 3248.87 253.406C3242.71 259.566 3235.12 262.646 3226.1 262.646Z" fill="#1B1B1B" fill-opacity="0.05"/>
</svg>
